<?xml version="1.0" encoding="utf-8"?>
<!-- Generator: Adobe Illustrator 20.0.0, SVG Export Plug-In . SVG Version: 6.00 Build 0)  -->
<svg version="1.1" id="Camada_1" xmlns="http://www.w3.org/2000/svg" xmlns:xlink="http://www.w3.org/1999/xlink" x="0px" y="0px"
	 viewBox="0 0 57.4 54.1" style="enable-background:new 0 0 57.4 54.1;" xml:space="preserve">
<g>
	<g>
		<path d="M31.6,45.4c-0.1,0.1-0.2,0.3-0.3,0.4c-0.3,0.5-0.6,0.9-0.9,1.2c-0.2,0-0.3,0-0.5,0.1c-0.3,0-0.6,0.1-0.9,0.1
			c0.1-0.3,0.3-0.6,0.4-0.9c0.2-0.4,0.4-0.8,0.5-1.3c0-0.1,0.1-0.2,0.1-0.3c0.5-0.1,1-0.1,1.5-0.2c0-0.5,0.1-1.1,0.1-1.8
			c-0.3,0-0.7,0.1-1.1,0.1c0-0.1,0.1-0.2,0.1-0.3c-0.5,0-1,0-1.5-0.1c0,0.2-0.1,0.3-0.1,0.5c-0.4,0-0.9,0-1.3,0.1
			c-0.3,0-0.6,0-0.9,0c0-0.3,0.1-0.5,0.1-0.8c-0.5-0.1-0.9-0.1-1.4-0.2c0,0.3-0.1,0.6-0.1,0.8c0,0.1,0,0.1,0,0.2c0,0,0,0,0,0
			c-0.2,0-0.5,0-0.7,0c-0.2,0-0.5,0-0.7,0c0,0,0,0-0.1,0c-0.1-0.4-0.1-0.9-0.2-1.3c-0.5-0.1-1-0.2-1.5-0.3c0.1,0.6,0.2,1.1,0.3,1.6
			c-0.2,0-0.3,0-0.5,0c-0.5,0-1-0.1-1.5-0.1c-0.1,0-0.2,0-0.2,0c-0.2-0.6-0.3-1.3-0.5-2c0,0,0-0.1,0-0.1c-0.6-0.2-1.1-0.4-1.7-0.6
			c0,0.2,0.1,0.4,0.1,0.6c0.2,0.7,0.3,1.4,0.5,2c-0.2,0-0.4,0-0.6-0.1c-0.5-0.1-1.1-0.1-1.6-0.2c-0.1,0-0.1,0-0.2,0
			c-0.3-0.7-0.6-1.3-0.8-2.1c-0.2-0.5-0.3-0.9-0.5-1.4c-0.7-0.3-1.4-0.7-2-1c0,0.1,0.1,0.2,0.1,0.3c0.2,0.6,0.4,1.3,0.6,1.9
			c0.3,0.7,0.5,1.4,0.8,2.1c-0.2,0-0.5-0.1-0.7-0.1c-0.4-0.1-0.8-0.2-1.2-0.3c-0.7-1.2-1.3-2.6-1.9-4.1c-0.1-0.2-0.1-0.4-0.2-0.5
			c0.1,0,0.2,0.1,0.3,0.1c0.6,0.2,1.2,0.4,1.9,0.6c0,0,0.1,0,0.1,0c-1.7-1-3.4-2.1-4.9-3.3c-0.1,0-0.1,0-0.2-0.1
			c-0.5-0.2-0.9-0.4-1.3-0.6c-0.2-0.1-0.4-0.2-0.5-0.3c-0.1-0.4-0.2-0.7-0.3-1.1c-0.8-0.8-1.6-1.7-2.2-2.6c0.1,0.5,0.1,0.9,0.2,1.4
			c0.1,0.3,0.1,0.6,0.2,0.9c0,0-0.1-0.1-0.1-0.1c-0.6-0.5-1.1-1-1.5-1.5c-0.2-1-0.3-2-0.3-3.1c-0.7-1.1-1.2-2.3-1.7-3.6
			c-0.1,0.9-0.2,1.8-0.2,2.8c0,1.4,0.1,2.7,0.3,4c0.1,0.6,0.2,1.1,0.3,1.7c0.2,0.7,0.3,1.3,0.6,2C2.5,36.8,3.6,39,5,40.8
			C5.1,41,5.1,41,5.2,41.1c2.6,3.6,6,6,9,7.4c1.6,0.7,3,1.2,4.3,1.5c1.1,0.3,2.3,0.6,3.4,0.7c0.3,0,0.5,0.1,0.8,0.1
			c0.4,0,0.8,0.1,1.1,0.1c0.3,0,0.7,0,1,0c0.1,0,0.2,0,0.3,0c0.3,0,0.5,0,0.8,0c0.1,0,0.1,0,0.2,0c3.8-0.1,7.5-1.2,10.6-2.9
			c1.6-0.9,3.3-2,4.8-3.4c1-1,2.1-2,3-3.3c-4.2,2.9-8.6,5.4-13.2,7.5C31.5,47.4,31.6,46.4,31.6,45.4z M6.1,39.1
			C6,39,5.8,38.9,5.7,38.8c-1.2-1.9-2.1-4.1-2.7-6.4c0.4,0.4,0.8,0.9,1.4,1.3c0.1,0.1,0.2,0.1,0.2,0.2C4.8,34.5,5,35,5.1,35.5
			c0.2,0.6,0.5,1.3,0.7,1.9c0.3,0.7,0.7,1.5,1,2.2C6.6,39.4,6.4,39.2,6.1,39.1z M8.8,42.7c-0.5-0.5-1-1-1.4-1.6
			c0.2,0.1,0.5,0.3,0.7,0.4C8.4,42,8.7,42.4,9,42.8c0.2,0.2,0.4,0.5,0.6,0.7C9.3,43.3,9.1,43,8.8,42.7z M10.3,41
			C10,41,9.8,40.9,9.6,40.8c-1-1.6-1.9-3.4-2.6-5.3c0.5,0.3,1.1,0.6,1.7,0.8c0.1,0.1,0.2,0.1,0.3,0.2c0.1,0.3,0.2,0.5,0.3,0.8
			c0.2,0.6,0.5,1.3,0.7,1.9c0.3,0.8,0.7,1.5,1,2.2C10.7,41.2,10.5,41.1,10.3,41z M13.8,45.7C13.8,45.7,13.8,45.7,13.8,45.7
			c-0.8-0.6-1.5-1.4-2.2-2.2c-0.1-0.1-0.2-0.2-0.3-0.3c-0.1-0.1-0.2-0.3-0.3-0.4c0,0,0.1,0,0.1,0.1c0.3,0.1,0.6,0.2,1,0.3
			c0.1,0.2,0.3,0.4,0.4,0.6c0.5,0.7,1.1,1.4,1.6,2c0,0,0,0,0,0C14.1,45.8,14,45.7,13.8,45.7z M16.8,46.5c-0.1-0.1-0.2-0.2-0.4-0.3
			c-0.7-0.7-1.4-1.5-2-2.3c0.2,0.1,0.5,0.1,0.7,0.2c0.3,0.1,0.6,0.1,0.9,0.2c0,0.1,0.1,0.1,0.1,0.2c0.4,0.7,0.8,1.3,1.3,1.9
			c0.1,0.1,0.1,0.2,0.2,0.2c0,0.1,0.1,0.1,0.1,0.1C17.4,46.6,17.1,46.6,16.8,46.5z M19.7,47c-0.1,0-0.2,0-0.2,0
			c-0.3-0.4-0.6-0.8-0.9-1.2c-0.3-0.4-0.5-0.8-0.8-1.3c0.4,0.1,0.8,0.1,1.2,0.2c0.1,0,0.3,0,0.4,0.1c0.1,0,0.2,0,0.3,0
			c0,0.1,0.1,0.2,0.1,0.3c0.2,0.6,0.4,1.1,0.7,1.6c0.1,0.2,0.2,0.4,0.3,0.6C20.5,47.1,20.1,47.1,19.7,47z M21.7,49
			c0.1,0,0.3,0,0.4,0c0.1,0.2,0.3,0.3,0.4,0.5C22.3,49.4,22,49.2,21.7,49z M22.1,47.2c-0.3-0.7-0.6-1.5-0.9-2.3
			c0.7,0.1,1.4,0.1,2.1,0.1c0.1,0.6,0.3,1.2,0.4,1.7c0,0.2,0.1,0.4,0.1,0.6c0,0,0,0.1,0,0.1c0,0,0,0,0,0c-0.3,0-0.6,0-0.9,0
			C22.6,47.3,22.4,47.3,22.1,47.2z M23.7,49.7c-0.1-0.1-0.2-0.2-0.3-0.3c-0.1-0.1-0.1-0.2-0.2-0.2c0.4,0,0.8,0,1.1,0
			c0.1,0.2,0.1,0.4,0.2,0.5C24.3,49.7,24,49.7,23.7,49.7z M25,49.2L25,49.2L25,49.2L25,49.2z M25.2,47.4c-0.1,0-0.2,0-0.3,0
			c0,0-0.1,0-0.1,0h-0.1c-0.1-0.7-0.2-1.4-0.3-2.3c0.2,0,0.3,0,0.5,0c0.2,0,0.4,0,0.5,0c-0.1,0.6-0.1,1.1-0.2,1.6
			C25.3,46.9,25.2,47.1,25.2,47.4z M26.5,49.4c-0.1,0.1-0.2,0.2-0.3,0.3c-0.3,0-0.5,0-0.8,0c0.1-0.2,0.1-0.3,0.2-0.5
			c0.4,0,0.8,0,1.1,0C26.7,49.2,26.6,49.3,26.5,49.4z M27.4,49.5c0.1-0.1,0.3-0.3,0.4-0.5c0.1,0,0.3,0,0.4,0
			C28,49.2,27.7,49.4,27.4,49.5z M27.9,47.3c-0.3,0-0.7,0-1,0c-0.2,0-0.5,0-0.7,0c0.1-0.2,0.1-0.5,0.2-0.8c0.1-0.5,0.2-1,0.4-1.6
			c0.7,0,1.4-0.1,2.1-0.1C28.5,45.8,28.2,46.6,27.9,47.3z M49.4,29.2c0.1-0.8,0.1-1.6,0.1-2.4c0-5.3-1.8-10.3-4.5-14
			c-1.7-2.4-3.8-4.3-5.8-5.8c-3.9-2.8-8.7-4.4-13.9-4.4c-2.6,0-5.2,0.4-7.5,1.2c-1.1,0.3-2.2,0.7-3.5,1.3c-1,0.5-2,1-3,1.7
			C11,6.8,10.7,7,10.4,7.2c-0.1,0.1-0.3,0.2-0.4,0.4c-1.1,0.9-2.3,1.9-3.3,3C6.1,11.3,5.5,12,5,12.8c-0.6,0.9-1.2,1.8-1.7,2.8
			c-0.1-0.2-0.2-0.4-0.3-0.7c-0.8-2.1-1.5-4.5-1.8-7.1c-0.4,2.4-0.5,4.7-0.4,6.9C1.6,32.9,19.8,41.1,33.5,41
			c-0.2,2.5-0.3,3.7-0.4,6.2c8.1-3.7,15.6-8.6,22.6-15c0.6-0.5,1.2-1.1,1.7-1.6C54.6,30.3,51.9,29.9,49.4,29.2z M40,9.6
			c1.3,1.2,2.5,2.5,3.6,4.1c0.1,0.1,0.1,0.2,0.2,0.3c-0.1,0.1-0.3,0.3-0.4,0.4c0,0,0,0-0.1,0c-0.1-0.2-0.2-0.3-0.2-0.5
			c-0.1-0.2-0.2-0.4-0.3-0.6C41.9,12,41,10.8,40,9.6L40,9.6z M38.9,10.7c1,1.2,1.8,2.5,2.6,4c0.1,0.2,0.2,0.4,0.3,0.7
			c-0.1,0.1-0.3,0.1-0.5,0.2c-0.3,0.1-0.5,0.2-0.8,0.3c-0.6-1.7-1.4-3.2-2.2-4.6c0,0,0,0,0,0c0,0-0.1-0.1-0.1-0.2
			C38.5,11,38.7,10.9,38.9,10.7z M35.5,7.3c0.9,0.7,1.8,1.5,2.6,2.4c-0.2,0.1-0.3,0.2-0.5,0.2c-0.7-1.1-1.5-2-2.3-2.8
			c-0.1-0.1-0.1-0.1-0.2-0.2C35.2,7.2,35.3,7.3,35.5,7.3z M31.8,6c0.4,0.3,0.8,0.6,1.2,1c1.1,0.9,2.1,2.1,3,3.5
			c-0.1,0-0.2,0.1-0.4,0.1c-0.1,0-0.3,0.1-0.4,0.1c-0.2,0-0.4,0.1-0.6,0.1c-0.3-0.7-0.7-1.4-1.1-2c0,0,0-0.1-0.1-0.1
			c-0.4-0.6-0.8-1.2-1.2-1.8c-0.3-0.3-0.5-0.7-0.8-1C31.7,6.1,31.7,6,31.8,6z M28.4,4.7C28.4,4.7,28.4,4.7,28.4,4.7
			c-0.2,0-0.3,0-0.4,0c0,0-0.1-0.1-0.1-0.1c-0.2-0.2-0.3-0.4-0.5-0.5C27.7,4.2,28.1,4.4,28.4,4.7z M26.2,3.9
			c0.1,0.1,0.2,0.2,0.4,0.4c0,0.1,0.1,0.1,0.1,0.2c0.1,0.1,0.2,0.2,0.3,0.4c-0.4,0-0.8,0-1.3,0c-0.1-0.2-0.1-0.4-0.2-0.5
			c-0.1-0.2-0.1-0.3-0.2-0.4C25.6,3.9,25.9,3.9,26.2,3.9z M26.4,18.4c-0.4,0-0.9,0-1.3,0c-0.1,0-0.2,0-0.3,0c-0.4,0-0.9,0-1.3,0
			c0.1-1.1,0.2-2.2,0.3-3.2c0.1-0.6,0.1-1.1,0.2-1.6c0.3,0,0.6,0,0.9,0c0.4,0,0.9,0,1.3,0c0.1,0.5,0.1,1,0.2,1.6
			c0.1,1,0.2,2.1,0.3,3.3C26.5,18.4,26.4,18.4,26.4,18.4z M26.6,20.2c0.1,1.5,0.1,3.1,0.2,4.7c-0.6,0-1.1,0-1.7,0c0,0-0.1,0-0.1,0
			c-0.6,0-1.2,0-1.9,0c0-1,0.1-2.1,0.1-3.1c0-0.6,0-1.1,0.1-1.7c0.6,0,1.1,0,1.7,0C25.6,20.2,26.1,20.2,26.6,20.2z M25,4.4
			c0,0.1,0,0.3,0,0.4h0c0,0-0.1,0-0.1,0C25,4.7,25,4.5,25,4.4z M25,6.8c0.1,0,0.2,0,0.3,0c0.1,0.5,0.1,1,0.2,1.6
			c0.1,1,0.3,2.1,0.4,3.3c-0.2,0-0.3,0-0.5,0c-0.2,0-0.4,0-0.6,0c-0.2,0-0.5,0-0.7,0c0,0,0,0,0,0c0,0,0,0,0,0
			c0.2-1.9,0.4-3.6,0.6-4.9C24.8,6.8,24.9,6.8,25,6.8z M23.4,4.2C23.4,4.2,23.4,4.2,23.4,4.2c0.1-0.1,0.2-0.3,0.3-0.3
			c0.3,0,0.5,0,0.8,0c0,0.1-0.1,0.2-0.1,0.4c-0.1,0.2-0.1,0.4-0.2,0.6c-0.4,0-0.8,0-1.3,0C23.1,4.6,23.3,4.4,23.4,4.2z M22.2,4.3
			c0.1-0.1,0.2-0.1,0.3-0.2c-0.1,0.1-0.1,0.1-0.2,0.2c-0.1,0.1-0.3,0.3-0.4,0.5c-0.1,0-0.3,0-0.4,0C21.8,4.5,22,4.4,22.2,4.3z
			 M18.6,7.8c0.3-0.5,0.7-1,1.1-1.4c0.4,0.1,0.7,0.1,1.1,0.2c-0.3,0.6-0.6,1.3-0.9,2c-0.3,0.9-0.6,1.8-0.9,2.9
			c-0.4,0-0.7-0.1-1.1-0.1c-0.4,0-0.7-0.1-1.1-0.2c0.5-1.1,1.1-2.2,1.6-3.1C18.5,8,18.5,7.9,18.6,7.8z M16.9,7
			c0.4-0.4,0.8-0.7,1.2-1c0.1,0,0.2,0.1,0.2,0.1c-0.3,0.3-0.6,0.6-0.8,1c-0.8,1.1-1.6,2.4-2.3,3.8c-0.2,0-0.5-0.1-0.7-0.2
			c-0.2-0.1-0.5-0.1-0.7-0.2c0.5-0.7,1-1.4,1.5-2C15.9,8,16.4,7.4,16.9,7z M14.9,7.1c-0.9,0.8-1.7,1.8-2.5,3c-0.1,0-0.2-0.1-0.3-0.1
			c0,0,0,0,0,0c-0.1,0-0.2-0.1-0.2-0.1c0,0,0,0,0,0C12.8,8.7,13.8,7.8,14.9,7.1z M7.2,12.7c0.8-1,1.6-1.9,2.5-2.8
			C8.8,11,8,12.2,7.2,13.5c-0.2,0.3-0.4,0.7-0.6,1c-0.2-0.1-0.3-0.3-0.4-0.4l0,0l0,0C6.5,13.6,6.8,13.1,7.2,12.7z M4.3,17.6
			C4.3,17.6,4.3,17.6,4.3,17.6c0.1-0.3,0.2-0.5,0.3-0.8c0.1-0.3,0.3-0.5,0.4-0.8c0.2-0.5,0.5-0.9,0.8-1.4c0,0,0,0,0,0
			c0.1,0.2,0.3,0.4,0.5,0.5c-0.5,1.1-1,2.2-1.3,3.5C4.7,18.4,4.5,18,4.3,17.6z M7.8,22.3c-0.2-0.1-0.3-0.1-0.4-0.2
			c-0.2-0.3-0.5-0.5-0.7-0.8c-0.1-0.2-0.3-0.4-0.4-0.6c0.2-0.8,0.4-1.5,0.6-2.2c0.1-0.4,0.3-0.7,0.4-1.1c0.1-0.3,0.3-0.7,0.4-1
			c0.1,0.1,0.3,0.2,0.5,0.3C8.4,16.7,8.7,16.9,9,17C8.5,18.7,8.1,20.4,7.8,22.3z M8.6,15.6c-0.2-0.1-0.3-0.1-0.5-0.2
			c0.5-1,1-1.9,1.6-2.8c0.2-0.4,0.5-0.7,0.7-1c0.2-0.3,0.4-0.5,0.6-0.8c0.1,0.1,0.2,0.1,0.3,0.2c0.1,0,0.2,0.1,0.2,0.1
			c0,0,0.1,0.1,0.1,0.1c-0.9,1.4-1.6,3-2.3,4.8C9.1,15.8,8.8,15.7,8.6,15.6z M12.1,26.1c-0.5-0.3-1-0.7-1.5-1.1
			c-0.2-0.2-0.5-0.4-0.7-0.6c0.2,0.1,0.5,0.2,0.7,0.2c0.5,0.2,1,0.3,1.5,0.4C12.1,25.5,12.1,25.8,12.1,26.1z M12.2,23.6
			c-0.5-0.1-1-0.2-1.4-0.4c-0.4-0.1-0.8-0.2-1.2-0.3c0.1-1.1,0.3-2.1,0.5-3.1c0.1-0.5,0.2-0.9,0.3-1.4c0.1-0.2,0.1-0.4,0.2-0.6
			c0.3,0.1,0.7,0.3,1.1,0.4c0.4,0.1,0.8,0.3,1.2,0.4C12.5,20.1,12.3,21.8,12.2,23.6z M12,16.7c-0.4-0.1-0.7-0.2-1-0.3
			c0.3-1,0.7-1.9,1.1-2.8c0.2-0.5,0.4-0.9,0.7-1.3c0.1-0.2,0.2-0.4,0.3-0.5c0.2,0.1,0.5,0.2,0.8,0.3c0.3,0.1,0.5,0.2,0.8,0.2
			c-0.6,1.5-1.1,3-1.5,4.7C12.8,16.9,12.4,16.8,12,16.7z M15.5,28.1c-0.2-0.1-0.5-0.2-0.7-0.3c-0.3-0.2-0.6-0.3-1-0.5
			c0-0.1,0-0.3,0-0.4c0-0.3,0-0.6,0-0.9c0-0.1,0-0.2,0-0.3c0.6,0.1,1.1,0.2,1.7,0.3c0.5,0.1,1.1,0.2,1.6,0.3c0,0.2,0,0.4,0,0.6
			c0,0.7,0,1.3,0,2C16.6,28.5,16.1,28.3,15.5,28.1z M17.2,24.5c-0.5-0.1-1-0.1-1.5-0.2c-0.6-0.1-1.2-0.2-1.7-0.3
			c0.1-1,0.2-2.1,0.3-3.1c0.1-0.6,0.2-1.1,0.2-1.6c0-0.1,0-0.2,0-0.3c0.5,0.1,1.1,0.2,1.6,0.4c0.5,0.1,0.9,0.2,1.4,0.3
			C17.4,21.1,17.3,22.8,17.2,24.5z M17.7,17.9c-0.5-0.1-0.9-0.1-1.4-0.2c-0.5-0.1-1-0.2-1.5-0.3c0.2-1,0.5-1.9,0.7-2.8
			c0.2-0.6,0.3-1.1,0.5-1.6c0-0.1,0.1-0.2,0.1-0.2c0.4,0.1,0.8,0.2,1.2,0.2c0.4,0.1,0.8,0.1,1.2,0.2C18.2,14.6,17.9,16.2,17.7,17.9z
			 M19.7,29.6c-0.2-0.1-0.5-0.1-0.7-0.2c0-0.4,0-0.8,0-1.2c0-0.5,0-0.9,0-1.4c0-0.1,0-0.3,0-0.4c0.8,0.1,1.6,0.1,2.4,0.2
			c0,0.1,0,0.1,0,0.2c0,1.1,0,2.2,0.1,3.2C20.8,29.9,20.3,29.8,19.7,29.6z M21.4,24.8c-0.5,0-1-0.1-1.6-0.1c-0.3,0-0.5,0-0.8-0.1
			c0-1,0.1-2,0.1-3c0-0.6,0.1-1.2,0.1-1.8c0,0,0,0,0,0c0.2,0,0.3,0,0.5,0.1c0.6,0.1,1.2,0.1,1.9,0.2C21.5,21.6,21.4,23.2,21.4,24.8z
			 M21.8,18.3c-0.5,0-1-0.1-1.4-0.1c-0.3,0-0.6,0-0.9-0.1c0.1-1,0.2-2.1,0.4-3c0.1-0.6,0.2-1.2,0.3-1.7c0.7,0.1,1.5,0.1,2.3,0.2
			C22.1,15,21.9,16.6,21.8,18.3z M22.6,11.7c-0.4,0-0.9,0-1.3-0.1c-0.3,0-0.6,0-0.9-0.1c0.2-0.9,0.4-1.8,0.7-2.6
			c0.1-0.2,0.1-0.4,0.2-0.6c0.2-0.6,0.4-1.2,0.6-1.7c0.6,0.1,1.2,0.1,1.7,0.1c-0.1,0.5-0.3,1.1-0.4,1.7
			C23.1,9.4,22.9,10.5,22.6,11.7C22.6,11.7,22.6,11.7,22.6,11.7z M26.8,26.8c0,1.4,0,2.7-0.1,4c-0.5,0-1.1-0.1-1.6-0.1
			c-0.6-0.1-1.3-0.2-1.9-0.3c0-0.7,0-1.3,0-2c0-0.5,0-1,0-1.6c0,0,0-0.1,0-0.1c0.6,0,1.2,0,1.9,0C25.6,26.8,26.2,26.7,26.8,26.8
			C26.8,26.8,26.8,26.8,26.8,26.8z M27.3,11.7c-0.1-0.6-0.2-1.3-0.3-1.8c-0.2-1.1-0.5-2.2-0.7-3.1c0.6,0,1.2,0,1.7-0.1
			c0.2,0.4,0.4,0.9,0.5,1.4c0.1,0.3,0.2,0.6,0.3,0.9c0.2,0.8,0.5,1.7,0.7,2.6c-0.2,0-0.4,0-0.6,0c-0.5,0-0.9,0.1-1.4,0.1
			C27.4,11.7,27.4,11.7,27.3,11.7z M27.8,15c-0.1-0.5-0.1-1-0.2-1.5c0.8,0,1.5-0.1,2.3-0.2c0.1,0.5,0.2,0.9,0.2,1.4
			c0.2,1.1,0.3,2.2,0.4,3.4c0,0-0.1,0-0.1,0c-0.5,0.1-1.1,0.1-1.7,0.1c-0.2,0-0.4,0-0.5,0C28.1,17.1,28,16,27.8,15z M28.4,20.1
			c0.8-0.1,1.6-0.1,2.4-0.2c0.1,1.5,0.2,3.2,0.2,4.8c-0.6,0.1-1.1,0.1-1.7,0.1c-0.2,0-0.4,0-0.7,0.1c0-1.1-0.1-2.2-0.1-3.3
			C28.4,21.1,28.4,20.6,28.4,20.1z M30.9,30.8c-0.5,0-1,0-1.6,0c-0.3,0-0.5,0-0.8,0c0-0.9,0.1-1.8,0.1-2.7c0-0.4,0-0.9,0-1.3
			c0-0.1,0-0.1,0-0.2c0.8-0.1,1.6-0.1,2.4-0.2c0,0.1,0,0.2,0,0.4C31,28.2,30.9,29.5,30.9,30.8z M30.1,8.6c-0.3-0.7-0.6-1.4-0.9-2
			c0.4,0,0.7-0.1,1.1-0.2c0.4,0.4,0.7,0.9,1.1,1.4c0.4,0.6,0.7,1.2,1.1,1.8c0.3,0.5,0.5,1,0.7,1.5c-0.2,0-0.5,0.1-0.8,0.1
			c-0.5,0.1-0.9,0.1-1.4,0.2C30.7,10.4,30.4,9.4,30.1,8.6z M31.7,14.4c-0.1-0.4-0.2-0.9-0.3-1.3c0.8-0.1,1.6-0.3,2.4-0.4
			c0.1,0.4,0.3,0.7,0.4,1.1c0.4,1.2,0.7,2.4,1,3.7c-0.1,0-0.2,0-0.3,0c-0.5,0.1-1.1,0.2-1.7,0.3c-0.3,0-0.6,0.1-1,0.1
			C32.1,16.7,31.9,15.5,31.7,14.4z M34.9,26c-0.2,1.5-0.3,2.7-0.5,4.6c-0.5,0.1-1,0.1-1.5,0.2c-0.1,0-0.2,0-0.2,0
			c0.1-1,0.1-2.1,0.1-3.2c0-0.3,0-0.5,0-0.8c0-0.2,0-0.4,0-0.6c0.2,0,0.4-0.1,0.6-0.1c0-0.3,0.1-0.6,0.1-0.9
			c0.4,0.2,0.8,0.4,1.2,0.7c0.1,0,0.1,0,0.2,0C34.9,25.9,34.9,25.9,34.9,26z M35.9,24c-0.2-0.1-0.5-0.3-0.7-0.4c0,0.2,0,0.4-0.1,0.5
			c-0.3,0-0.5,0.1-0.8,0.1c-0.5,0.1-1,0.2-1.5,0.2c0-1.2-0.1-2.4-0.2-3.5c0-0.4-0.1-0.9-0.1-1.3c1.1-0.2,2.1-0.4,3-0.6
			c0.1,0.4,0.1,0.8,0.2,1.1c0.1,1,0.2,1.9,0.3,3c0,0.3,0,0.5,0.1,0.8C36,23.9,35.9,23.9,35.9,24z M36.8,17.1
			c-0.1-0.3-0.1-0.5-0.2-0.8c-0.4-1.4-0.8-2.7-1.3-4c0.5-0.2,1-0.3,1.5-0.5c0.1,0.2,0.2,0.4,0.3,0.6c0.7,1.2,1.3,2.6,1.8,4.1
			c-0.1,0-0.3,0.1-0.4,0.1c-0.5,0.2-1.1,0.3-1.6,0.4C36.9,17,36.9,17,36.8,17.1z M37.3,19.6c-0.1-0.3-0.1-0.7-0.2-1
			c0.8-0.2,1.5-0.5,2.2-0.8c0.1,0.3,0.1,0.5,0.2,0.8c0.4,1.3,0.6,2.7,0.8,4.2c0,0,0,0-0.1,0c-0.5,0.2-1.1,0.3-1.7,0.5
			c-0.3,0.1-0.5,0.1-0.8,0.2C37.7,22.2,37.5,20.9,37.3,19.6z M38,25.1c0.9-0.3,1.7-0.5,2.5-0.8c0.1,0.7,0.1,1.4,0.1,2.1
			C39.7,25.9,38.9,25.5,38,25.1z M41,17.1c0.5-0.2,0.9-0.5,1.3-0.7c0,0.1,0.1,0.1,0.1,0.2c0.6,1.5,1.2,3.1,1.5,4.8
			c-0.1,0-0.1,0.1-0.2,0.1c-0.5,0.3-1,0.5-1.6,0.7C41.9,20.4,41.5,18.7,41,17.1z M44.4,27.8c-0.5-0.2-1.1-0.4-1.6-0.6
			c-0.1,0-0.2-0.1-0.3-0.1c0-0.1,0-0.2,0-0.3c0-0.9,0-1.7-0.1-2.6c0-0.2,0-0.5-0.1-0.7c0.1,0,0.2-0.1,0.3-0.1
			c0.6-0.3,1.1-0.6,1.5-0.9c0,0.1,0,0.2,0.1,0.4c0.1,0.6,0.2,1.3,0.2,2c0,0.6,0.1,1.3,0.1,1.9C44.4,27.1,44.4,27.5,44.4,27.8z
			 M43.7,15.3c0.1-0.1,0.1-0.1,0.1-0.2c0.1-0.2,0.3-0.3,0.4-0.5c0.9,1.4,1.6,3,2.2,4.7c0,0.1-0.1,0.1-0.1,0.2c0,0-0.1,0.1-0.1,0.1
			c-0.2,0.2-0.4,0.4-0.7,0.7C45.1,18.5,44.5,16.8,43.7,15.3z M46.5,20.5c0.1-0.1,0.1-0.2,0.2-0.3c0.4,1.5,0.7,3,0.9,4.6
			c0,0.3,0,0.5,0.1,0.8c-0.3,0.4-0.8,0.9-1.4,1.4c0-0.1,0-0.1,0-0.2c0-1.9-0.2-3.7-0.5-5.5C46,21.1,46.3,20.8,46.5,20.5z M47.6,28.8
			c-0.5-0.1-0.9-0.3-1.4-0.4c0,0,0,0,0,0c0.6-0.5,1.1-1,1.4-1.5C47.7,27.5,47.6,28.2,47.6,28.8z"/>
	</g>
</g>
</svg>
