<?xml version="1.0" encoding="utf-8"?>
<!-- Generator: Adobe Illustrator 20.0.0, SVG Export Plug-In . SVG Version: 6.00 Build 0)  -->
<svg version="1.1" id="Camada_1" xmlns="http://www.w3.org/2000/svg" xmlns:xlink="http://www.w3.org/1999/xlink" x="0px" y="0px"
	 viewBox="0 0 44 44" style="enable-background:new 0 0 44 44;" xml:space="preserve">
<path d="M22,4c5.9,0,6.6,0,8.9,0.1C33,4.2,34.2,4.5,35,4.8c1,0.4,1.8,0.9,2.5,1.6C38.3,7.3,38.8,8,39.2,9c0.3,0.8,0.7,1.9,0.8,4.1
	c0.1,2.3,0.1,3,0.1,8.9c0,5.9,0,6.6-0.1,8.9c-0.1,2.1-0.5,3.3-0.8,4.1c-0.4,1-0.9,1.8-1.6,2.5c-0.8,0.8-1.5,1.2-2.5,1.6
	c-0.8,0.3-1.9,0.7-4.1,0.8C28.6,40,27.9,40,22,40c-5.9,0-6.6,0-8.9-0.1C11,39.8,9.8,39.5,9,39.2c-1-0.4-1.8-0.9-2.5-1.6
	C5.7,36.7,5.2,36,4.8,35c-0.3-0.8-0.7-1.9-0.8-4.1C4,28.6,4,27.9,4,22c0-5.9,0-6.6,0.1-8.9C4.2,11,4.5,9.8,4.8,9
	c0.4-1,0.9-1.8,1.6-2.5C7.3,5.7,8,5.2,9,4.8c0.8-0.3,1.9-0.7,4.1-0.8C15.4,4,16.1,4,22,4 M22,0c-6,0-6.7,0-9.1,0.1
	c-2.3,0.1-3.9,0.5-5.3,1C6.1,1.7,4.9,2.5,3.7,3.7c-1.2,1.2-2,2.4-2.5,3.9c-0.5,1.4-0.9,3-1,5.3C0,15.3,0,16,0,22c0,6,0,6.7,0.1,9.1
	c0.1,2.3,0.5,3.9,1,5.3c0.6,1.4,1.3,2.7,2.5,3.9c1.2,1.2,2.4,2,3.9,2.5c1.4,0.5,3,0.9,5.3,1C15.3,44,16,44,22,44c6,0,6.7,0,9.1-0.1
	c2.3-0.1,3.9-0.5,5.3-1c1.4-0.6,2.7-1.3,3.9-2.5c1.2-1.2,2-2.4,2.5-3.9c0.5-1.4,0.9-3,1-5.3C44,28.7,44,28,44,22c0-6,0-6.7-0.1-9.1
	c-0.1-2.3-0.5-3.9-1-5.3c-0.6-1.4-1.3-2.7-2.5-3.9c-1.2-1.2-2.5-2-3.9-2.5c-1.4-0.5-3-0.9-5.3-1C28.7,0,28,0,22,0z M22,10.7
	c-6.2,0-11.3,5.1-11.3,11.3c0,6.2,5.1,11.3,11.3,11.3c6.2,0,11.3-5.1,11.3-11.3C33.3,15.8,28.2,10.7,22,10.7z M22,29.3
	c-4.1,0-7.3-3.3-7.3-7.3c0-4,3.3-7.3,7.3-7.3c4.1,0,7.3,3.3,7.3,7.3C29.3,26.1,26,29.3,22,29.3z M36.4,10.3c0,1.5-1.2,2.6-2.6,2.6
	c-1.5,0-2.6-1.2-2.6-2.6c0-1.5,1.2-2.6,2.6-2.6C35.2,7.6,36.4,8.8,36.4,10.3z"/>
</svg>
