<?xml version="1.0" encoding="utf-8"?>
<!-- Generator: Adobe Illustrator 20.0.0, SVG Export Plug-In . SVG Version: 6.00 Build 0)  -->
<svg version="1.1" id="Camada_1" xmlns="http://www.w3.org/2000/svg" xmlns:xlink="http://www.w3.org/1999/xlink" x="0px" y="0px"
	 viewBox="0 0 57.4 54.1" style="enable-background:new 0 0 57.4 54.1;" xml:space="preserve">
<g>
	<g>
		<path d="M53.2,38.8c0,0-6.4-7-6.7-6.7l-0.8,0.6l-4-5.8l1.5-9.8c0.1-0.8-0.3-1.5-0.9-1.9L14.1,0.6c-0.6-0.3-1.2-0.2-1.8,0.2
			c-0.5,0.4-0.8,1.1-0.7,1.7l4.6,32.6c0.1,0.8,0.7,1.4,1.4,1.5l9.3,1.5l4,5.8l-0.8,0.6c-0.4,0.3,4,8.8,4,8.8
			c0.3,0.4,0.7,0.6,1.1,0.7c0.4,0.1,0.9,0,1.3-0.3l16.1-12.4C53.6,40.8,53.7,39.6,53.2,38.8z M32.9,42.6l-3.5-5
			c-0.3-0.5-0.8-0.8-1.3-0.9L17.5,35L12.8,2.9L23.5,18c-0.4,0.6-0.6,1.2-0.6,2c0,1.9,1.4,3.4,3.2,3.4c1.8,0,3.2-1.5,3.2-3.4
			c0-1.9-1.4-3.4-3.2-3.4c-0.5,0-0.9,0.1-1.3,0.3L14.1,2l27.6,14.4l-1.7,11.2c-0.1,0.6,0,1.1,0.4,1.6l3.5,5L32.9,42.6z"/>
	</g>
</g>
</svg>
