<?xml version="1.0" encoding="utf-8"?>
<!-- Generator: Adobe Illustrator 20.0.0, SVG Export Plug-In . SVG Version: 6.00 Build 0)  -->
<svg version="1.1" id="Camada_1" xmlns="http://www.w3.org/2000/svg" xmlns:xlink="http://www.w3.org/1999/xlink" x="0px" y="0px"
	 viewBox="0 0 54 54.1" style="enable-background:new 0 0 54 54.1;" xml:space="preserve">
<path d="M49.6,0h-6.2H42H12h-1.3H4.4C2,0,0,2,0,4.5v8.4v1.9v24.7v1.4v8.8c0,2.4,2,4.5,4.4,4.5h6.2H12H42h1.3h6.2
	c2.4,0,4.4-2,4.4-4.5v-8.8v-1.4V14.7v-1.9V4.5C54,2,52,0,49.6,0z M8.8,52.2H4.4v-4.7h4.3V52.2z M8.8,44.6H4.4v-4.7h4.3V44.6z
	 M8.8,37H4.4v-4.7h4.3V37z M8.8,29.4H4.4v-4.7h4.3V29.4z M8.8,21.8H4.4v-4.7h4.3V21.8z M8.8,14.2H4.4V9.5h4.3V14.2z M8.8,6.6H4.4
	V1.9h4.3V6.6z M12,1.4H42v21.6H12V1.4z M42,52.6H12V31H42V52.6z M49.6,52.2h-4.3v-4.7h4.3V52.2z M49.6,44.6h-4.3v-4.7h4.3V44.6z
	 M49.6,37h-4.3v-4.7h4.3V37z M49.6,29.4h-4.3v-4.7h4.3V29.4z M49.6,21.8h-4.3v-4.7h4.3V21.8z M49.6,14.2h-4.3V9.5h4.3V14.2z
	 M49.6,6.6h-4.3V1.9h4.3V6.6z"/>
</svg>
