<?xml version="1.0" encoding="utf-8"?>
<!-- Generator: Adobe Illustrator 20.0.0, SVG Export Plug-In . SVG Version: 6.00 Build 0)  -->
<svg version="1.1" id="Camada_1" xmlns="http://www.w3.org/2000/svg" xmlns:xlink="http://www.w3.org/1999/xlink" x="0px" y="0px"
	 viewBox="0 0 54 54.1" style="enable-background:new 0 0 54 54.1;" xml:space="preserve">
<g>
	<g>
		<path d="M35.1,46H18.9c-4,0-7.2,3.2-7.2,7.2h30.7C42.3,49.2,39.1,46,35.1,46z M22.3,39v5.4h9.4V39H22.3z M52.6,0H1.4
			C0.6,0,0,0.6,0,1.4v34.5c0,0.7,0.6,1.4,1.4,1.4h51.3c0.8,0,1.4-0.6,1.4-1.4V1.4C54,0.6,53.4,0,52.6,0z M48.8,30.7
			c0,0.7-0.6,1.4-1.4,1.4H6.6c-0.8,0-1.4-0.6-1.4-1.4V6.6c0-0.7,0.6-1.4,1.4-1.4h40.7c0.8,0,1.4,0.6,1.4,1.4V30.7z"/>
	</g>
</g>
</svg>
